
<?xml version="1.0" encoding="utf-8"?>
<!-- Generator: Adobe Illustrator 26.0.1, SVG Export Plug-In . SVG Version: 6.00 Build 0)  -->
<svg version="1.1" id="Layer_1" xmlns="http://www.w3.org/2000/svg" xmlns:xlink="http://www.w3.org/1999/xlink" x="0px" y="0px"
	 viewBox="0 0 282 104" style="enable-background:new 0 0 282 104;" xml:space="preserve">
<style type="text/css">
	.st0{fill:url(#SVGID_1_);}
	.st1{fill:url(#SVGID_00000035498952412656289160000015275212791875090340_);}
	.st2{fill:url(#SVGID_00000183230143334334189420000006290618520180044719_);}
	.st3{fill:#1E589F;}
</style>
<g>
	<g>
		<g>
			
				<linearGradient id="SVGID_1_" gradientUnits="userSpaceOnUse" x1="55.7225" y1="82.051" x2="29.233" y2="25.244" gradientTransform="matrix(1 4.319120e-03 4.319120e-03 -1 -28.1595 106.5039)">
				<stop  offset="0.1371" style="stop-color:#1E589F"/>
				<stop  offset="0.6807" style="stop-color:#097D88"/>
				<stop  offset="1" style="stop-color:#008D7D"/>
			</linearGradient>
			<path class="st0" d="M4.8,82.86l15.49,0.07c1.22,0.01,2.21-0.98,2.21-2.19l0.25-57.08c0.01-1.73-1.9-2.8-3.37-1.87L3.84,31.54
				c-0.64,0.4-1.03,1.1-1.03,1.85l-0.2,47.26C2.61,81.87,3.59,82.86,4.8,82.86z"/>
			
				<linearGradient id="SVGID_00000134958397183084227570000012495510298964790422_" gradientUnits="userSpaceOnUse" x1="-632.9827" y1="-70.1564" x2="-606.7197" y2="-13.1942" gradientTransform="matrix(-1 -4.319120e-03 -4.319120e-03 1 -548.4756 89.9733)">
				<stop  offset="0.1371" style="stop-color:#1E589F"/>
				<stop  offset="0.6807" style="stop-color:#097D88"/>
				<stop  offset="1" style="stop-color:#008D7D"/>
			</linearGradient>
			<path style="fill:url(#SVGID_00000134958397183084227570000012495510298964790422_);" d="M81.3,21.14l-15.49-0.07
				c-1.22-0.01-2.21,0.98-2.21,2.19l-0.25,57.08c-0.01,1.73,1.9,2.8,3.37,1.87l15.54-9.75c0.64-0.4,1.03-1.1,1.03-1.85l0.2-47.26
				C83.5,22.13,82.52,21.14,81.3,21.14z"/>
			
				<linearGradient id="SVGID_00000072259893944654660200000008266883206334035628_" gradientUnits="userSpaceOnUse" x1="91.9095" y1="99.7086" x2="50.0351" y2="9.9086" gradientTransform="matrix(1 4.319120e-03 4.319120e-03 -1 -28.1595 106.5039)">
				<stop  offset="0.1371" style="stop-color:#1E589F"/>
				<stop  offset="0.6807" style="stop-color:#097D88"/>
				<stop  offset="1" style="stop-color:#008D7D"/>
			</linearGradient>
			<path style="fill:url(#SVGID_00000072259893944654660200000008266883206334035628_);" d="M32.9,13.32
				c-0.64,0.4-1.03,1.11-1.03,1.86v84.93c0,1.73,1.91,2.78,3.37,1.86L53.2,90.7c0.64-0.4,1.03-1.11,1.03-1.86V3.89
				c0-1.73-1.91-2.78-3.37-1.86L32.9,13.32z"/>
		</g>
	</g>
	<g>
		<g>
			<g>
				<path d="M110.15,26.72h24.24v6.13H116.9v11.53h16.09v5.79H116.9v12.26h17.49v6.13h-24.24V26.72z"/>
				<path d="M146.59,63c3.99,0,6.52-2.59,6.52-7.65V26.72h6.75V56.3c0,7.54-4.56,12.94-12.32,12.94c-2.98,0-5.96-1.01-7.99-2.76
					v-6.97C141.24,61.43,143.55,63,146.59,63z"/>
				<path d="M199.12,56.98c0,6.24-4.78,11.59-14.51,11.59h-14.57V26.72h13.84c9.17,0,13.95,4.78,13.95,10.97
					c0,4.89-2.7,7.87-6.24,9.28C196.53,48.55,199.12,52.15,199.12,56.98z M176.73,44.67h7.03c4.89,0,7.59-2.64,7.59-6.19
					c0-3.6-2.7-5.91-7.31-5.91h-7.31L176.73,44.67L176.73,44.67z M192.48,56.2c0-3.99-3.32-6.36-7.99-6.36h-7.76v12.82h7.48
					C189.61,62.66,192.48,59.96,192.48,56.2z"/>
				<path d="M225.72,69.41c-11.19,0-21.09-8.49-21.09-21.82c0-13.27,9.9-21.77,21.09-21.77c4.78,0,8.44,1.29,11.25,2.81v6.92
					c-3.32-2.14-6.41-3.43-10.74-3.43c-7.54,0-14.74,5.85-14.74,15.52c0,9.56,7.2,15.47,14.74,15.47c4.33,0,7.42-1.35,10.74-3.49
					v6.97C234.15,68.12,230.5,69.41,225.72,69.41z"/>
				<path d="M272.84,68.57l-4.44-11.75h-17.04l-4.44,11.75h-7.03l16.14-41.85h7.7l16.26,41.85H272.84z M253.38,51.02h12.99
					l-6.52-17.1L253.38,51.02z"/>
			</g>
		</g>
		<g>
			<path class="st3" d="M172.18,84.39c0.64-1.16,1.96-1.84,3.28-1.84c2.28,0,4.35,1.98,4.35,5.1c0,3.12-2.14,5.1-4.43,5.1
				c-1.39,0-2.64-0.71-3.34-1.91l-0.23,1.68h-1.75V78.23h2.11v6.16H172.18z M172.14,87.66c0,1.87,1.2,3.18,2.77,3.18
				s2.78-1.3,2.78-3.16c0-1.87-1.21-3.19-2.8-3.19C173.34,84.48,172.14,85.8,172.14,87.66z"/>
			<path class="st3" d="M184.73,96.27h-2.12l1.68-4.07l-3.66-9.42h2.28l2.44,7.03h0.04l2.46-7.03h2.18L184.73,96.27z"/>
			<path class="st3" d="M204.06,92.53l-5.66-6.44v6.44h-2.14V79.25h2.14v6.39l5.64-6.39h2.57l-5.87,6.57l5.98,6.71H204.06z"/>
			<path class="st3" d="M215.85,88.3h-6.99c0.28,1.71,1.59,2.71,3.3,2.71c1.11,0,2.2-0.39,3.18-1.16v1.89
				c-1,0.68-2.14,1.02-3.39,1.02c-3.19,0-5.12-2.07-5.12-5.07c0-3.12,2.18-5.14,4.78-5.14c2.36,0,4.3,1.69,4.3,4.93
				C215.91,87.78,215.89,88.05,215.85,88.3z M213.91,86.89c-0.05-1.73-1.11-2.59-2.32-2.59c-1.34,0-2.5,0.98-2.75,2.59H213.91z"/>
			<path class="st3" d="M220.8,96.27h-2.12l1.68-4.07l-3.66-9.42h2.28l2.44,7.03h0.04l2.46-7.03h2.18L220.8,96.27z"/>
			<path class="st3" d="M228.37,84.57H227v-1.78h1.37V81.5c0-1.87,1.34-3.39,3.52-3.39c0.61,0,1.18,0.11,1.73,0.29v1.86
				c-0.36-0.13-0.91-0.25-1.41-0.25c-1.14,0-1.75,0.54-1.75,1.73v1.05h2.71v1.78h-2.7v7.96h-2.1L228.37,84.57L228.37,84.57z"/>
			<path class="st3" d="M233.99,87.67c0-3.1,2.14-5.12,4.37-5.12c1.43,0,2.68,0.71,3.37,1.91l0.23-1.68h1.75v9.74h-1.75l-0.23-1.68
				c-0.7,1.2-1.95,1.91-3.37,1.91C236.13,92.76,233.99,90.74,233.99,87.67z M241.66,87.66c0-1.86-1.21-3.18-2.77-3.18
				c-1.59,0-2.8,1.32-2.8,3.18c0,1.87,1.21,3.18,2.8,3.18C240.45,90.83,241.66,89.53,241.66,87.66z"/>
			<path class="st3" d="M251.11,90.83c0.78,0,1.71-0.16,2.53-0.77v2.02c-0.75,0.43-1.71,0.68-2.77,0.68c-2.84,0-5-2.18-5-5.12
				c0-2.91,2.16-5.09,5-5.09c1,0,1.96,0.2,2.77,0.7v2.03c-0.82-0.57-1.61-0.8-2.55-0.8c-1.62,0-3.09,1.21-3.09,3.18
				C248,89.64,249.46,90.83,251.11,90.83z"/>
			<path class="st3" d="M258.46,82.78h2.7v1.78h-2.7v4.32c0,1.39,0.86,1.96,2.03,1.96c0.27,0,0.55-0.04,0.87-0.09v1.8
				c-0.27,0.05-0.71,0.13-1.3,0.13c-2.3,0-3.68-1.37-3.68-3.69v-4.43h-1.43v-1.78h1.46v-2.27h2.03v2.27H258.46z"/>
			<path class="st3" d="M262.55,87.66c0-2.96,2.16-5.1,4.96-5.1c2.82,0,4.94,2.14,4.94,5.1s-2.12,5.1-4.94,5.1
				S262.55,90.62,262.55,87.66z M270.33,87.66c0-2.02-1.37-3.18-2.82-3.18s-2.84,1.16-2.84,3.18s1.39,3.18,2.84,3.18
				C268.95,90.83,270.33,89.67,270.33,87.66z"/>
			<path class="st3" d="M274.61,82.78h1.68l0.21,1.52h0.04c0.66-1.23,1.86-1.62,2.73-1.62c0.27,0,0.48,0.02,0.68,0.05v2
				c-0.23-0.05-0.48-0.07-0.73-0.07c-1.25,0-2.5,0.75-2.5,2.62v5.25h-2.11V82.78z"/>
		</g>
	</g>
</g>
</svg>
