<svg width="136.36395" height="110.36238" xmlns="http://www.w3.org/2000/svg" data-name="Layer 1">

 <title>sub-project-brand-logo-variants</title>
 <g>
  <title>Layer 1</title>
  <path id="svg_4" fill="#1e88e5" d="m121.58689,0l-107.19434,0a14.43487,14.43487 0 0 0 -14.39255,14.39247l0,82.57744a14.43487,14.43487 0 0 0 14.39255,14.39247l107.19434,0a14.43487,14.43487 0 0 0 14.39255,-14.39247l0,-82.57744a14.43487,14.43487 0 0 0 -14.39255,-14.39247zm-64.12878,80.98065l-26.16045,15.20279a6.99993,6.99993 0 1 1 -7.03418,-12.10444l26.16045,-15.20274a6.99993,6.99993 0 1 1 7.03418,12.10439zm10.2915,-23.16221l-0.03145,0a6.99967,6.99967 0 0 1 -6.96923,-7.03044l0.13125,-30.13725a7.00056,7.00056 0 0 1 6.99931,-6.96958l0.03145,0a6.99991,6.99991 0 0 1 6.96924,7.03042l-0.13125,30.13725a7.00056,7.00056 0 0 1 -6.99932,6.9696zm46.2875,35.81006a6.997,6.997 0 0 1 -9.56211,2.56211l-26.19873,-15.12588a6.99994,6.99994 0 1 1 7,-12.12421l26.19873,15.12587a6.99956,6.99956 0 0 1 2.56211,9.56211z" class="cls-2"/>
 </g>
</svg>