<?xml version="1.0" encoding="UTF-8"?>
<svg width="159px" height="35px" viewBox="0 0 159 35" version="1.1" xmlns="http://www.w3.org/2000/svg" xmlns:xlink="http://www.w3.org/1999/xlink">
    <title>Seldon logo - colour</title>
    <g id="Symbols" stroke="none" stroke-width="1" fill="none" fill-rule="evenodd">
        <g id="Floating-Header---wireframe" transform="translate(-50.000000, -37.000000)" fill="#1e88e5" fill-rule="nonzero">
            <g id="Seldon-logo---colour" transform="translate(50.000000, 37.000000)">
                <g id="icon-seldon-mark" transform="translate(-0.000000, 0.000000)">
                    <path d="M21.9046857,9.44348404 C24.4935393,9.44348404 26.6004007,7.32579787 26.6004007,4.72220745 C26.6004007,2.11861702 24.4944662,-1.00278209e-15 21.9046857,-1.00278209e-15 C20.6209184,-1.00278209e-15 19.3751543,0.54268617 18.4871766,1.4875 L12.8905071,7.49893617 L20.9861201,9.35132979 C21.1131064,9.37087766 21.5793411,9.44348404 21.9046857,9.44348404 Z M20.6005264,3.48603723 C20.9425554,3.12393617 21.4171322,2.91635638 21.9046857,2.91635638 C22.8946233,2.91635638 23.7001062,3.72619681 23.7001062,4.7212766 C23.7001062,5.71635638 22.8946233,6.52619681 21.9139548,6.52712766 C21.851852,6.52526596 21.6924238,6.50757979 21.5302149,6.48430851 L18.46215,5.78244681 L20.6005264,3.48603723 Z" id="Shape"></path>
                    <path d="M23.9170026,19.5851064 L15.0585445,16.4630319 L11.9719415,7.6125 C11.1293822,5.09082447 8.78801308,3.39853723 6.14539888,3.39853723 C2.75662387,3.39853723 0,6.1706117 0,9.57659574 C0,12.1764628 1.63969994,14.5156915 4.07839443,15.3962766 L12.9961746,18.5378989 L16.0225287,27.2115691 C16.8066927,29.800266 19.2240683,31.6014628 21.9056126,31.6014628 C25.2943876,31.6014628 28.0510115,28.8293883 28.0510115,25.4224734 C28.0500846,22.7918883 26.3890658,20.4461436 23.9170026,19.5851064 Z M5.04979383,12.6484043 C3.76417268,12.1792553 2.90029458,10.9468085 2.90029458,9.57659574 C2.90029458,7.77819149 4.35553987,6.31489362 6.14447197,6.31489362 C7.53946824,6.31489362 8.77596328,7.20944149 9.22087904,8.54148936 L9.22736739,8.56010638 L9.23385575,8.5787234 L11.4380426,14.8992021 L5.04979383,12.6484043 Z M21.9046857,28.6841755 C20.4892975,28.6841755 19.2110916,27.7300532 18.7967638,26.362633 L18.7791525,26.3049202 L18.7596875,26.2472074 L16.6166766,20.1035904 L22.9669221,22.3404255 C24.2720083,22.7956117 25.1488631,24.0336436 25.1488631,25.4234043 C25.1488631,27.2208777 23.6936178,28.6841755 21.9046857,28.6841755 Z" id="Shape-Copy-3"></path>
                    <path d="M6.14539888,25.556516 C3.55561841,25.556516 1.44968384,27.6742021 1.44968384,30.2777926 C1.44968384,32.881383 3.55561841,35 6.14539888,35 C7.42916621,35 8.67493033,34.4573138 9.56290803,33.5115691 L15.1595775,27.5019947 L7.16407058,25.6700798 C6.81648014,25.59375 6.47815879,25.556516 6.14539888,25.556516 Z M7.45048509,31.5130319 C7.10845611,31.8760638 6.63295239,32.0827128 6.14539888,32.0827128 C5.15546132,32.0827128 4.34997842,31.2738032 4.34997842,30.2787234 C4.34997842,29.2836436 5.15546132,28.474734 6.14539888,28.474734 C6.26960453,28.474734 6.3965909,28.4886968 6.53191944,28.518484 L9.58793454,29.218484 L7.45048509,31.5130319 Z" id="Shape-Copy-4"></path>
                </g>
                <path d="M105.744231,8.69787234 L99.4755787,8.69787234 C98.6666603,8.69787234 98.0111575,9.35505319 98.0111575,10.1658245 L98.0111575,24.8462766 C98.0111575,25.6570479 98.6666603,26.3142287 99.4755787,26.3142287 L105.744231,26.3142287 C108.611708,26.3142287 111.080304,25.437367 112.883169,23.7767287 C114.626528,22.1691489 115.587002,19.9425532 115.587002,17.5055851 C115.587002,15.068617 114.626528,12.8410904 112.883169,11.2344415 C111.080304,9.57566489 108.610778,8.69787234 105.744231,8.69787234 Z M105.744231,23.3783245 L100.94,23.3783245 L100.94,11.6347074 L105.744231,11.6347074 C109.879013,11.6347074 112.658159,13.9944149 112.658159,17.506516 C112.65723,21.018617 109.879013,23.3783245 105.744231,23.3783245 Z M154.03666,8.47726064 C151.338406,8.47726064 150.416983,10.7652926 149.144099,13.9292553 L146.692239,19.9807181 C145.53,22.8700798 145.109734,23.5980053 144.424478,23.5980053 C143.818254,23.5980053 143.416584,23.0702128 143.416584,22.4195479 L143.416584,10.1658245 C143.416584,9.35505319 142.761082,8.69787234 141.953093,8.69787234 C141.143245,8.69787234 140.487742,9.35505319 140.487742,10.1658245 L140.487742,22.4204787 C140.487742,24.6898936 142.294326,26.5348404 144.515598,26.5348404 C147.215712,26.5348404 148.136205,24.2468085 149.409089,21.0837766 L151.860019,15.0323138 C153.023188,12.1420213 153.443454,11.4150266 154.12871,11.4150266 C154.734004,11.4150266 155.135674,11.9428191 155.135674,12.593484 L155.135674,24.8481383 C155.135674,25.6589096 155.791176,26.3160904 156.600095,26.3160904 C157.409013,26.3160904 158.064516,25.6570479 158.064516,24.8462766 L158.064516,12.5916223 C158.064516,10.3231383 156.257932,8.47726064 154.03666,8.47726064 Z M127.854668,8.31901596 C122.605066,8.31901596 118.333605,12.4343085 118.333605,17.4944149 C118.333605,22.5535904 122.605066,26.668883 127.854668,26.668883 C133.104269,26.668883 137.374801,22.5526596 137.374801,17.4944149 C137.374801,12.4343085 133.10334,8.31901596 127.854668,8.31901596 Z M127.854668,23.7339096 C124.220114,23.7339096 121.263378,20.9339096 121.263378,17.4944149 C121.263378,14.0539894 124.220114,11.2549202 127.854668,11.2549202 C131.489222,11.2549202 134.445958,14.0539894 134.445958,17.4944149 C134.445958,20.9339096 131.489222,23.7339096 127.854668,23.7339096 Z M73.4758254,23.3783245 L61.0249905,23.3783245 L61.0249905,18.5835106 L69.6302087,18.5835106 C70.4391271,18.5835106 71.09463,17.9263298 71.09463,17.1155585 C71.09463,16.3047872 70.4381973,15.6476064 69.6302087,15.6476064 L61.0249905,15.6476064 L61.0249905,11.6347074 L72.559981,11.6347074 C73.3688994,11.6347074 74.0253321,10.9765957 74.0253321,10.1667553 C74.0253321,9.35598404 73.3688994,8.69880319 72.559981,8.69880319 L59.5605693,8.69880319 C58.7516509,8.69880319 58.0952182,9.35598404 58.0952182,10.1667553 L58.0952182,24.8472074 C58.0952182,25.6579787 58.7516509,26.3151596 59.5605693,26.3151596 L73.4758254,26.3151596 C74.2847438,26.3151596 74.9402467,25.6579787 74.9402467,24.8472074 C74.9402467,24.0364362 74.2847438,23.3783245 73.4758254,23.3783245 Z M49.213852,17.3734043 L43.1757875,14.9168883 C40.2925047,13.7514628 39.5663378,13.3307181 39.5663378,12.64375 C39.5663378,12.0359043 40.0935294,11.6347074 40.7415939,11.6347074 L52.9683491,11.6347074 C53.7772676,11.6347074 54.4337002,10.9765957 54.4337002,10.1667553 C54.4337002,9.35598404 53.7772676,8.69880319 52.9683491,8.69880319 L40.7415939,8.69880319 C38.478482,8.69880319 36.6365655,10.5102394 36.6365655,12.7359043 C36.6365655,15.4418883 38.9201328,16.3643617 42.0767742,17.6396277 L48.1148387,20.0970745 C50.9990512,21.2625 51.7242884,21.6832447 51.7242884,22.3702128 C51.7242884,22.9771277 51.1970968,23.3792553 50.5490323,23.3792553 L38.322277,23.3792553 C37.5133586,23.3792553 36.8578558,24.0364362 36.8578558,24.8472074 C36.8578558,25.6579787 37.5133586,26.3151596 38.322277,26.3151596 L50.5490323,26.3151596 C52.813074,26.3151596 54.6540607,24.5046543 54.6540607,22.2780585 C54.6540607,19.5720745 52.3704934,18.6496011 49.213852,17.3734043 Z M93.4328653,23.3783245 L81.3483681,23.3783245 L81.3483681,10.1658245 C81.3483681,9.35505319 80.6928653,8.69787234 79.8839469,8.69787234 C79.0750285,8.69787234 78.4195256,9.35505319 78.4195256,10.1658245 L78.4195256,24.8462766 C78.4195256,25.6570479 79.0750285,26.3142287 79.8839469,26.3142287 L93.4328653,26.3142287 C94.2408539,26.3142287 94.8972865,25.6570479 94.8972865,24.8462766 C94.8972865,24.0355053 94.2408539,23.3783245 93.4328653,23.3783245 Z" id="Shape-Copy"></path>
            </g>
        </g>
    </g>
</svg>