<svg class="text-black inline-block ml-2 text-sm" xmlns="http://www.w3.org/2000/svg" xmlns:xlink="http://www.w3.org/1999/xlink" aria-hidden="true" focusable="false" role="img" width="1em" height="1em" preserveAspectRatio="xMidYMid meet" viewBox="0 0 32 32"><path d="M19.66,20.63l1.94,7.9,2.11-6.83H27.6V20.51H23L21.87,24,17.26,5.38,11.1,21.75,8.68,14.21l-2,6.14H5.27v1.58H7.46L8.7,18.26,11.06,26l2-5.41Zm-.34-1.38-2.24-9.13-3.45,9.13Z" fill="currentColor" fill-rule="evenodd"></path><path d="M29.26,28.46l-.57-.29a6.41,6.41,0,0,1,1.56-12,14.63,14.63,0,0,0-28.5,0,6.38,6.38,0,0,1,5,5.33,6.4,6.4,0,0,1-3.44,6.65l-.57.29-.33-.54A15.92,15.92,0,0,1,0,19.47,16.11,16.11,0,0,1,.24,16.7v-.13l0-.06a16,16,0,0,1,31.45,0l0,0v.13A16.31,16.31,0,0,1,32,19.47a15.92,15.92,0,0,1-2.41,8.45Z" fill="#ef5028"></path></svg>