<svg class="icon__animated d-block mx-auto" xmlns="http://www.w3.org/2000/svg" viewBox="0 0 328.15 257.53"><defs><style>.cls-1{fill:#326ce6}.cls-2{fill:#fff}</style></defs><title>icon</title><g id="Layer_2" data-name="Layer 2"><g id="Layer_1-2" data-name="Layer 1"><path class="cls-1" d="M244 130.3a8.5 8.5.0 00-3.35-.69H89.09a16.14 16.14.0 00-7.39 1.8h0a16.23 16.23.0 1022.8 19.67v41.71a85 85 0 0017 11.68V146.56h17V219.7a84 84 0 0017 3.46v-76.6h17v76.6a82.89 82.89.0 0017-3.46V146.56h16.95v57.93a85.09 85.09.0 0017-11.68V146.56h0A16.22 16.22.0 10244 130.3zm-149.09 18-3.43 3.42H86.67l-3.42-3.42v-4.84L86.67 140h4.84l3.43 3.42zm150.25.0-3.42 3.42h-4.84l-3.42-3.42v-4.84l3.42-3.42h4.84l3.42 3.42z"></path><path class="cls-1" d="M298.09 128.93a73.39 73.39.0 00-14.88 1.45 118.18 118.18.0 00-17.16-54.29 72.17 72.17.0 0012.56-8c13.07-10.23 20.62-22.43 16.85-27.24S278 40.43 265 50.65a74.56 74.56.0 00-10.34 9.74A119.46 119.46.0 00132.33 23.23c-3.7 1-7.31 2.24-10.86 3.6-.63.24-1.27.49-1.9.75s-1 .39-1.49.6l-.52.21a119.56 119.56.0 00-44 32.12 74.56 74.56.0 00-10.34-9.74C50.11 40.55 36.46 36.16 32.69 41s3.78 17 16.85 27.24a72.17 72.17.0 0012.56 8A118.18 118.18.0 0044.94 130.5a73.39 73.39.0 00-14.88-1.45C13.46 129.05.0 134 0 140.12S13.46 151.2 30.06 151.2a72.18 72.18.0 0015.17-1.52 118.32 118.32.0 0017.06 51 73.41 73.41.0 00-12.75 8.08C36.47 219 28.92 231.17 32.69 236s17.42.43 30.5-9.8a73.85 73.85.0 0010.51-9.94 118.91 118.91.0 0084.59 41.14q.44.0.87.0c.7.0 1.41.06 2.12.08.88.0 1.76.0 2.65.0a118.84 118.84.0 0044.78-8.7l.33-.14c.66-.26 1.31-.54 2-.82l1.64-.71.58-.26a119.6 119.6.0 0041.23-30.77A73.85 73.85.0 00265 226.07c13.08 10.23 26.73 14.61 30.5 9.8s-3.78-17-16.85-27.25a73.41 73.41.0 00-12.75-8.08 118.32 118.32.0 0017.06-51 72.18 72.18.0 0015.17 1.52c16.6.0 30.06-5 30.06-11.08s-13.5-11.05-30.1-11.05zM266.15 138c0 1.83.0 3.65-.14 5.45A102.21 102.21.0 01246.06 199c-.7 1-1.42 1.88-2.16 2.8-.42.53-.85 1.06-1.29 1.58s-1.09 1.31-1.66 2c-1.68 1.92-3.45 3.8-5.29 5.62A101.86 101.86.0 01164 240.47h-.38q-.94.0-1.89.0h-.92c-.65.0-1.29.0-1.94-.08h-.25c-.84.0-1.68-.1-2.52-.16-1.23-.09-2.45-.22-3.67-.36-1-.1-1.9-.23-2.85-.36l-1.07-.15a101.36 101.36.0 01-37.82-13.88l-.42-.26c-1-.61-1.93-1.24-2.89-1.87l-1.32-.91c-.72-.49-1.42-1-2.13-1.51a103.21 103.21.0 01-11.44-9.76c-1.84-1.82-3.61-3.7-5.29-5.62-.57-.64-1.12-1.29-1.66-2s-.87-1-1.29-1.58c-.74-.92-1.46-1.85-2.16-2.8a102.21 102.21.0 01-20-55.59c-.09-1.8-.14-3.62-.14-5.45V138c0-.63.0-1.26.0-1.89.0-.28.0-.56.0-.84.0-.57.0-1.15.06-1.72.0-.9.09-1.79.16-2.68.0-.38.05-.76.09-1.13a9 9 0 01.08-.91c0-.78.13-1.56.23-2.33.1-1 .22-1.93.37-2.88l.21-1.44a102.08 102.08.0 01101-86.53 101.42 101.42.0 0131.67 5 100.18 100.18.0 0117 7.31 102.9 102.9.0 0114 9.18l.8.65q.85.66 1.68 1.35c.65.55 1.3 1.1 1.94 1.66l.49.43a102.4 102.4.0 0133.22 60.79l.21 1.44c.15 1 .27 1.91.37 2.88.1.77.18 1.55.23 2.33a9 9 0 01.08.91c0 .37.06.75.09 1.13.07.89.12 1.78.16 2.68.0.57.05 1.15.06 1.72.0.28.0.56.0.84.0.63.0 1.26.0 1.89z"></path><g class="float"><path class="cls-2" d="M196.33 69.33V99.56l-40.58.09h-.05a22.24 22.24.0 01-22.26-22.24c0-9.62.0-19.83.0-27.91V17.05L174 17h.06a22.24 22.24.0 0122.25 22.23z"></path><path class="cls-1" d="M182.18 75.84H158.3a6.1 6.1.0 000 12.19h23.88a6.1 6.1.0 100-12.19z"></path><path class="cls-1" d="M147.58 39.8h23.87a6.1 6.1.0 100-12.2H147.58a6.1 6.1.0 000 12.2z"></path><path class="cls-1" d="M147.58 63.76h34.6a6.1 6.1.0 000-12.2h-34.6a6.1 6.1.0 000 12.2z"></path><path class="cls-1" d="M213.28 69.32V47.75c0-13-1.26-18.1-1.56-19.48A39.21 39.21.0 00174.07.0H174L131 .1a14.56 14.56.0 00-14.49 14.54V60.21c0 5.57.0 11.49.0 17.21a39.21 39.21.0 0039.2 39.19h.1l43-.11A14.55 14.55.0 00213.28 102V80.28h0zM196.33 99.56l-40.58.09h-.05a22.24 22.24.0 01-22.26-22.24c0-9.62.0-19.83.0-27.91V17.05L174 17h.06a22.24 22.24.0 0122.25 22.23V99.56z"></path></g></g></g></svg>