<svg class="text-black inline-block ml-2 text-sm" xmlns="http://www.w3.org/2000/svg" xmlns:xlink="http://www.w3.org/1999/xlink" aria-hidden="true" focusable="false" role="img" width="1em" height="1em" preserveAspectRatio="xMidYMid meet" viewBox="0 0 32 32"><path d="M1.85,12.52A3.23,3.23,0,0,1,0,9.57,3.15,3.15,0,0,1,3.08,6.35a3.11,3.11,0,0,1,3,2.58H13a3.06,3.06,0,0,1,6,0H29.54V19.28A3.19,3.19,0,0,1,32,22.43a3.15,3.15,0,0,1-3.08,3.22,3.11,3.11,0,0,1-3-2.58H19a3.06,3.06,0,0,1-6,0H1.85Zm13.23,6.84a3.15,3.15,0,0,0-1.9,1.78H3.69V12.72A3.14,3.14,0,0,0,5.9,10.86h7.28a3.15,3.15,0,0,0,1.9,1.78Zm3.74,1.78a3.15,3.15,0,0,0-1.9-1.78V12.64a3.15,3.15,0,0,0,1.9-1.78h8.87v8.62a3.18,3.18,0,0,0-1.59,1.66Z" fill-rule="evenodd" fill="currentColor"></path><ellipse cx="3.08" cy="22.43" rx="3.08" ry="3.22" fill="red"></ellipse><ellipse cx="28.92" cy="9.57" rx="3.08" ry="3.22" fill="red"></ellipse></svg>