<svg class="text-black inline-block ml-2 text-sm" xmlns="http://www.w3.org/2000/svg" xmlns:xlink="http://www.w3.org/1999/xlink" aria-hidden="true" focusable="false" role="img" preserveAspectRatio="xMidYMid meet" width="1em" height="1em" viewBox="0 0 32 32"><path d="M32,32H0V0H32V32Z" fill="#fff"></path><path d="M31.47,31.47H.53V.53H31.47V31.47Z" fill="#d00000"></path><path d="M9,24.41a.11.11,0,0,0,0,.07l.53.53.07,0h1.81l.07,0,.53-.53a.11.11,0,0,0,0-.07V18.66a.19.19,0,0,1,0-.08l2.31-2.19a0,0,0,0,1,0,0L20.26,25a.08.08,0,0,0,.06,0h2.57A.08.08,0,0,0,23,25l.47-.9a.08.08,0,0,0,0-.08l-6.8-9.86a0,0,0,0,1,0-.06l6.25-6.23a.11.11,0,0,0,0-.07V7.68s0-.06,0-.08l-.37-.83s0,0-.05,0H19.93a.11.11,0,0,0-.07,0l-7.78,7.81s0,0,0,0V7.4a.11.11,0,0,0,0-.08l-.51-.55a.12.12,0,0,0-.08,0H9.61a.1.1,0,0,0-.07,0L9,7.34a.11.11,0,0,0,0,.07v17Z" fill="#fff"></path></svg>