<svg xmlns="http://www.w3.org/2000/svg" width="1em" height="1em" viewBox="0 0 64 64"><path fill="#a7a8ac" d="M2.197 63.937h59.619a.91.91 0 0 0 .9-.904V5.073c0-.493-.405-.9-.9-.9H2.195a.826.826 0 0 0-.614.241s-.013.013-.016.025c0 0-.02.008-.029.033a.8.8 0 0 0-.244.601v57.955c0 .489.411.904.902.904"/><path fill="#d1d2d3" d="M1.299 44.511v18.521c0 .489.409.904.897.904h59.62a.912.912 0 0 0 .902-.904V44.511H1.298"/><g fill="#405967"><path d="M8.762 46.271h46.494c.387 0 .703-.271.703-.588V7.968c0-.319-.316-.587-.703-.587H8.767c-.207 0-.373.061-.477.159c0 0-.011.008-.018.017c0 0-.012.004-.02.019a.49.49 0 0 0-.188.393v37.714c0 .317.322.588.703.588"/><path d="M43.695 44.754c0 7.02-5.234 12.726-11.679 12.726c-6.453 0-11.681-5.7-11.681-12.726c0-7.03 5.228-12.729 11.681-12.729c6.444 0 11.679 5.695 11.679 12.729"/></g><path fill="#de374b" d="M34.415 1.115c1.506 1.858 2.999 3.717 4.506 5.576a2239.72 2239.72 0 0 0 4.495 5.576c1.058 1.311-.285 3.01-2.421 3.01h-4.596v14.328h-8.782V15.277H23.01c-2.119 0-3.466-1.702-2.413-3.01c3-3.717 6-7.435 8.991-11.152c1.051-1.299 3.788-1.299 4.827 0"/></svg>