
<svg version="1.1" id="Hor-Full-Color" xmlns="http://www.w3.org/2000/svg" x="0" y="0" viewBox="0 0 184.2 34.7" xml:space="preserve"><style type="text/css">.st0{fill:#101820}</style><path class="st0" d="M17.4.3L.3 6.9v4.4L17.4 18l17-6.7V6.9zM.3 23.4v4.3l17.1 6.7 17-6.7v-4.3l-17 6.6z"/><path class="st0" d="M.3 15.1v4.4l17.1 6.7 17-6.7v-4.4l-17 6.7zm52.6 6.6c0-.7-.3-1.3-.9-1.6-.6-.4-1.6-.7-3-1s-2.5-.7-3.4-1.1c-2-1-3-2.4-3-4.2 0-1.6.7-2.9 2-3.9s3-1.6 5-1.6c2.2 0 3.9.5 5.2 1.6s2 2.4 2 4.1h-4c0-.8-.3-1.4-.9-1.9-.6-.5-1.3-.8-2.3-.8-.9 0-1.6.2-2.2.6-.6.4-.8 1-.8 1.6s.3 1.1.8 1.4 1.6.7 3.2 1c1.6.3 2.8.8 3.7 1.2.9.5 1.6 1.1 2 1.7.4.7.7 1.5.7 2.5 0 1.6-.7 2.9-2 3.9s-3.1 1.5-5.3 1.5c-1.5 0-2.8-.3-3.9-.8-1.2-.5-2.1-1.3-2.7-2.2-.6-.9-1-1.9-1-3H46c.1 1 .4 1.7 1.1 2.2.7.5 1.5.8 2.6.8s1.9-.2 2.4-.6c.5-.2.8-.8.8-1.4zm18.4 3.1c-1.2 1.4-2.9 2.1-5.1 2.1-2 0-3.4-.6-4.4-1.7s-1.5-2.8-1.5-5V8.6h4v11.6c0 2.3.9 3.4 2.8 3.4 2 0 3.3-.7 4-2.1V8.6h4v18h-3.8v-1.8zm7.4-7.4c0-2.8.7-5 2-6.7s3.1-2.5 5.2-2.5 3.7.7 4.8 2.1l.2-1.8h3.6V26c0 2.4-.7 4.2-2.2 5.6s-3.5 2-6 2c-1.3 0-2.6-.3-3.9-.8s-2.2-1.3-2.9-2.2l1.9-2.4c1.2 1.5 2.8 2.2 4.6 2.2 1.3 0 2.4-.4 3.2-1.1s1.2-1.8 1.2-3.2V25c-1.2 1.3-2.7 1.9-4.7 1.9-2.1 0-3.8-.8-5.2-2.5-1.2-1.7-1.8-4-1.8-7zm4 .4c0 1.8.4 3.2 1.1 4.3.7 1 1.8 1.6 3.1 1.6 1.6 0 2.8-.7 3.6-2.1v-7.9c-.8-1.4-2-2-3.6-2-1.3 0-2.4.5-3.1 1.6-.7.9-1.1 2.4-1.1 4.5zm26.8 8.8c-.2-.3-.3-.9-.5-1.7-1.3 1.3-2.9 2-4.7 2-1.8 0-3.3-.5-4.4-1.5s-1.7-2.3-1.7-3.8c0-1.9.7-3.4 2.1-4.4s3.5-1.5 6.1-1.5h2.5v-1.2c0-.9-.3-1.7-.8-2.2s-1.3-.8-2.4-.8c-.9 0-1.7.2-2.3.7-.6.5-.9 1-.9 1.8h-4c0-1 .3-1.9 1-2.8.7-.9 1.5-1.5 2.7-2 1.1-.5 2.4-.7 3.8-.7 2.1 0 3.8.5 5 1.6s1.9 2.6 1.9 4.5v8.1c0 1.6.2 2.9.7 3.9v.3h-4.1v-.3zm-4.5-2.9c.8 0 1.6-.2 2.3-.6.7-.4 1.2-.9 1.6-1.6v-3.4h-2.2c-1.5 0-2.6.3-3.4.8s-1.1 1.3-1.1 2.2c0 .8.3 1.4.8 1.9.5.4 1.2.7 2 .7zm21.6-11.5c-.5-.1-1.1-.1-1.6-.1-1.9 0-3.1.7-3.7 2.1v12.3h-4v-18h3.9l.1 2c1-1.6 2.3-2.3 4.1-2.3.6 0 1.1.1 1.4.2l-.2 3.8zm9.7 13c1.4 0 2.6-.4 3.5-1.2.9-.8 1.4-1.8 1.5-3h1.9c-.1 1.1-.4 2.1-1 3s-1.5 1.6-2.5 2.1-2.2.8-3.4.8c-2.4 0-4.2-.8-5.6-2.5-1.4-1.6-2.1-3.9-2.1-6.6v-.6c0-1.8.3-3.3.9-4.7s1.5-2.4 2.7-3.2c1.2-.7 2.5-1.1 4.1-1.1 2 0 3.6.6 4.9 1.8 1.3 1.2 2 2.7 2.1 4.6h-1.9c-.1-1.4-.6-2.5-1.5-3.4s-2.1-1.3-3.5-1.3c-1.8 0-3.2.6-4.2 1.9s-1.5 3.1-1.5 5.5v.6c0 2.3.5 4.1 1.5 5.4.9 1.3 2.3 1.9 4.1 1.9zm19.3-14.9c-.4-.1-.9-.1-1.3-.1-1.2 0-2.3.3-3.2 1s-1.5 1.7-1.8 3v12.4h-2v-18h1.9v2.9c1.1-2.1 2.7-3.2 5.1-3.2.6 0 1 .1 1.3.2v1.8zm4.9-1.7l.1 2.9c.7-1.1 1.5-1.9 2.5-2.4s2.1-.8 3.3-.8c2.8 0 4.6 1.2 5.4 3.5.6-1.1 1.5-2 2.6-2.6 1.1-.6 2.3-.9 3.6-.9 3.9 0 5.8 2.1 5.9 6.3v12h-2V14.7c0-1.6-.4-2.8-1-3.6-.7-.8-1.8-1.2-3.3-1.2-1.4 0-2.6.5-3.6 1.4s-1.5 2-1.6 3.3v11.9h-2v-12c0-1.5-.4-2.7-1.1-3.5-.7-.8-1.8-1.1-3.3-1.1-1.3 0-2.3.4-3.2 1.1-.9.7-1.6 1.8-2 3.2v12.4h-2v-18h1.7z"/></svg>